# xmcd CD database file
#
# Track frame offsets:
#	150
#	26686
#	50470
#	70465
#	91707
#	106706
#	126735
#	154964
#	172283
#	191293
#	213112
#	238146
#
# Disc length: 3392 seconds
#
# Revision: 1
# Processed by: cddbd v1.5.2PL0 Copyright (c) Steve Scherf et al.
# Submitted via: jetAudio 5
#
DISCID=a80d3e0c
DTITLE=Keith Urban - Love Pain and the Whole crazy thing
DYEAR=1900
DGENRE=
TTITLE0=Once In A Lifetime
TTITLE1=Shine
TTITLE2=I Told You So
TTITLE3=I Can't Stop Loving You
TTITLE4=Won't Let You Down
TTITLE5=Faster Car
TTITLE6=Stupid Boy
TTITLE7=Used To The Pain
TTITLE8=Tu Compania
TTITLE9=God Made Woman
TTITLE10=Everybody
TTITLE11=Got It Right This Time
EXTD=
EXTT0=
EXTT1=
EXTT2=
EXTT3=
EXTT4=
EXTT5=
EXTT6=
EXTT7=
EXTT8=
EXTT9=
EXTT10=
EXTT11=
PLAYORDER=
